# MagicaVoxel @ Ephtracy

# group
o 

# material
mtllib PistolModel.mtl
usemtl palette

# normals
vn -1 0 0
vn 1 0 0
vn 0 0 1
vn 0 0 -1
vn 0 -1 0
vn 0 1 0

# texcoords
vt 0.00195313 0.5
vt 0.00585938 0.5

# verts
v -0.2 0 -0.7
v -0.2 0 -1
v -0.2 0.6 -0.6
v -0.2 0.6 -0.7
v -0.2 0.8 -0.5
v -0.2 0.8 -0.6
v -0.2 0.9 -0.4
v -0.2 0.9 -0.5
v -0.2 1 0.5
v -0.2 1 -0.4
v -0.2 1.1 -1
v -0.2 1.1 -1.1
v -0.2 1.2 0.5
v -0.2 1.2 -0.7
v -0.2 1.3 -0.7
v -0.2 1.3 -1
v -0.2 1.3 -1.1
v -0.2 1.5 -1
v -0.2 1.5 -1.1
v -0.0999999 0 -0.6
v -0.0999999 0 -0.7
v -0.0999999 0 -1
v -0.0999999 0 -1.1
v -0.0999999 0.5 0
v -0.0999999 0.5 -0.5
v -0.0999999 0.5 -0.6
v -0.0999999 0.6 0.1
v -0.0999999 0.6 0
v -0.0999999 0.6 -0.4
v -0.0999999 0.6 -0.5
v -0.0999999 0.6 -0.6
v -0.0999999 0.6 -0.7
v -0.0999999 0.7 -0.1
v -0.0999999 0.7 -0.3
v -0.0999999 0.8 -0.1
v -0.0999999 0.8 -0.2
v -0.0999999 0.8 -0.3
v -0.0999999 0.8 -0.4
v -0.0999999 0.8 -0.5
v -0.0999999 0.8 -0.6
v -0.0999999 0.9 0.5
v -0.0999999 0.9 0.1
v -0.0999999 0.9 0
v -0.0999999 0.9 -0.2
v -0.0999999 0.9 -0.3
v -0.0999999 0.9 -0.4
v -0.0999999 0.9 -0.5
v -0.0999999 1 0.6
v -0.0999999 1 0.5
v -0.0999999 1 -0.4
v -0.0999999 1.1 -1
v -0.0999999 1.1 -1.1
v -0.0999999 1.1 -1.2
v -0.0999999 1.2 0.6
v -0.0999999 1.2 0.5
v -0.0999999 1.2 -0.7
v -0.0999999 1.3 0.5
v -0.0999999 1.3 -0.7
v -0.0999999 1.3 -1.1
v -0.0999999 1.3 -1.2
v 0.1 1.4 -1
v 0.1 1.4 -1.1
v 0.1 1.5 -1
v 0.1 1.5 -1.1
v -0.0999999 1.4 -1
v -0.0999999 1.4 -1.1
v -0.0999999 1.5 -1
v -0.0999999 1.5 -1.1
v 0.1 0 -0.6
v 0.1 0 -0.7
v 0.1 0 -1
v 0.1 0 -1.1
v 0.1 0.5 0
v 0.1 0.5 -0.5
v 0.1 0.5 -0.6
v 0.1 0.6 0.1
v 0.1 0.6 0
v 0.1 0.6 -0.4
v 0.1 0.6 -0.5
v 0.1 0.6 -0.6
v 0.1 0.6 -0.7
v 0.1 0.7 -0.1
v 0.1 0.7 -0.3
v 0.1 0.8 -0.1
v 0.1 0.8 -0.2
v 0.1 0.8 -0.3
v 0.1 0.8 -0.4
v 0.1 0.8 -0.5
v 0.1 0.8 -0.6
v 0.1 0.9 0.5
v 0.1 0.9 0.1
v 0.1 0.9 0
v 0.1 0.9 -0.2
v 0.1 0.9 -0.3
v 0.1 0.9 -0.4
v 0.1 0.9 -0.5
v 0.1 1 0.6
v 0.1 1 0.5
v 0.1 1 -0.4
v 0.1 1.1 -1
v 0.1 1.1 -1.1
v 0.1 1.1 -1.2
v 0.1 1.2 0.6
v 0.1 1.2 0.5
v 0.1 1.2 -0.7
v 0.1 1.3 0.5
v 0.1 1.3 -0.7
v 0.1 1.3 -1.1
v 0.1 1.3 -1.2
v 0.2 0 -0.7
v 0.2 0 -1
v 0.2 0.6 -0.6
v 0.2 0.6 -0.7
v 0.2 0.8 -0.5
v 0.2 0.8 -0.6
v 0.2 0.9 -0.4
v 0.2 0.9 -0.5
v 0.2 1 0.5
v 0.2 1 -0.4
v 0.2 1.1 -1
v 0.2 1.1 -1.1
v 0.2 1.2 0.5
v 0.2 1.2 -0.7
v 0.2 1.3 -0.7
v 0.2 1.3 -1
v 0.2 1.3 -1.1
v 0.2 1.5 -1
v 0.2 1.5 -1.1
v -0.0999999 1 0.6
v -0.0999999 1.2 0.6
v 0.1 1 0.6
v 0.1 1.2 0.6
v -0.2 1 0.5
v -0.2 1.2 0.5
v -0.0999999 0.9 0.5
v -0.0999999 1 0.5
v -0.0999999 1.2 0.5
v -0.0999999 1.3 0.5
v 0.1 0.9 0.5
v 0.1 1 0.5
v 0.1 1.2 0.5
v 0.1 1.3 0.5
v 0.2 1 0.5
v 0.2 1.2 0.5
v -0.0999999 0.6 0.1
v -0.0999999 0.9 0.1
v 0.1 0.6 0.1
v 0.1 0.9 0.1
v -0.0999999 0.5 0
v -0.0999999 0.6 0
v 0.1 0.5 0
v 0.1 0.6 0
v -0.0999999 0.7 -0.1
v -0.0999999 0.8 -0.1
v 0.1 0.7 -0.1
v 0.1 0.8 -0.1
v -0.0999999 0.8 -0.2
v -0.0999999 0.9 -0.2
v 0.1 0.8 -0.2
v 0.1 0.9 -0.2
v -0.2 0.9 -0.4
v -0.2 1 -0.4
v -0.0999999 0.6 -0.4
v -0.0999999 0.8 -0.4
v -0.0999999 0.9 -0.4
v -0.0999999 1 -0.4
v 0.1 0.6 -0.4
v 0.1 0.8 -0.4
v 0.1 0.9 -0.4
v 0.1 1 -0.4
v 0.2 0.9 -0.4
v 0.2 1 -0.4
v -0.2 0.8 -0.5
v -0.2 0.9 -0.5
v -0.0999999 0.8 -0.5
v -0.0999999 0.9 -0.5
v 0.1 0.8 -0.5
v 0.1 0.9 -0.5
v 0.2 0.8 -0.5
v 0.2 0.9 -0.5
v -0.2 0.6 -0.6
v -0.2 0.8 -0.6
v -0.0999999 0 -0.6
v -0.0999999 0.5 -0.6
v -0.0999999 0.6 -0.6
v -0.0999999 0.8 -0.6
v 0.1 0 -0.6
v 0.1 0.5 -0.6
v 0.1 0.6 -0.6
v 0.1 0.8 -0.6
v 0.2 0.6 -0.6
v 0.2 0.8 -0.6
v -0.2 0 -0.7
v -0.2 0.6 -0.7
v -0.2 1.2 -0.7
v -0.2 1.3 -0.7
v -0.0999999 0 -0.7
v -0.0999999 0.6 -0.7
v -0.0999999 1.2 -0.7
v -0.0999999 1.3 -0.7
v 0.1 0 -0.7
v 0.1 0.6 -0.7
v 0.1 1.2 -0.7
v 0.1 1.3 -0.7
v 0.2 0 -0.7
v 0.2 0.6 -0.7
v 0.2 1.2 -0.7
v 0.2 1.3 -0.7
v -0.2 1.3 -1
v -0.2 1.5 -1
v -0.0999999 1.4 -1
v -0.0999999 1.5 -1
v 0.1 1.4 -1
v 0.1 1.5 -1
v 0.2 1.3 -1
v 0.2 1.5 -1
v -0.0999999 0.6 0
v -0.0999999 0.9 0
v 0.1 0.6 0
v 0.1 0.9 0
v -0.0999999 0.7 -0.3
v -0.0999999 0.8 -0.3
v 0.1 0.7 -0.3
v 0.1 0.8 -0.3
v -0.2 0 -1
v -0.2 1.1 -1
v -0.0999999 0 -1
v -0.0999999 1.1 -1
v 0.1 0 -1
v 0.1 1.1 -1
v 0.2 0 -1
v 0.2 1.1 -1
v -0.2 1.1 -1.1
v -0.2 1.3 -1.1
v -0.2 1.5 -1.1
v -0.0999999 0 -1.1
v -0.0999999 1.1 -1.1
v -0.0999999 1.3 -1.1
v -0.0999999 1.4 -1.1
v -0.0999999 1.5 -1.1
v 0.1 0 -1.1
v 0.1 1.1 -1.1
v 0.1 1.3 -1.1
v 0.1 1.4 -1.1
v 0.1 1.5 -1.1
v 0.2 1.1 -1.1
v 0.2 1.3 -1.1
v 0.2 1.5 -1.1
v -0.0999999 1.1 -1.2
v -0.0999999 1.3 -1.2
v 0.1 1.1 -1.2
v 0.1 1.3 -1.2
v -0.0999999 0 -0.6
v 0.1 0 -0.6
v -0.2 0 -0.7
v -0.0999999 0 -0.7
v 0.1 0 -0.7
v 0.2 0 -0.7
v -0.2 0 -1
v -0.0999999 0 -1
v 0.1 0 -1
v 0.2 0 -1
v -0.0999999 0 -1.1
v 0.1 0 -1.1
v -0.0999999 0.5 0
v 0.1 0.5 0
v -0.0999999 0.5 -0.5
v 0.1 0.5 -0.5
v -0.0999999 0.5 -0.6
v 0.1 0.5 -0.6
v -0.0999999 0.6 0.1
v 0.1 0.6 0.1
v -0.0999999 0.6 0
v 0.1 0.6 0
v -0.2 0.6 -0.6
v -0.0999999 0.6 -0.6
v 0.1 0.6 -0.6
v 0.2 0.6 -0.6
v -0.2 0.6 -0.7
v -0.0999999 0.6 -0.7
v 0.1 0.6 -0.7
v 0.2 0.6 -0.7
v -0.0999999 0.7 -0.1
v 0.1 0.7 -0.1
v -0.0999999 0.7 -0.3
v 0.1 0.7 -0.3
v -0.0999999 0.8 -0.3
v 0.1 0.8 -0.3
v -0.0999999 0.8 -0.4
v 0.1 0.8 -0.4
v -0.2 0.8 -0.5
v -0.0999999 0.8 -0.5
v 0.1 0.8 -0.5
v 0.2 0.8 -0.5
v -0.2 0.8 -0.6
v -0.0999999 0.8 -0.6
v 0.1 0.8 -0.6
v 0.2 0.8 -0.6
v -0.0999999 0.9 0.5
v 0.1 0.9 0.5
v -0.0999999 0.9 0.1
v 0.1 0.9 0.1
v -0.0999999 0.9 0
v 0.1 0.9 0
v -0.0999999 0.9 -0.2
v 0.1 0.9 -0.2
v -0.2 0.9 -0.4
v -0.0999999 0.9 -0.4
v 0.1 0.9 -0.4
v 0.2 0.9 -0.4
v -0.2 0.9 -0.5
v -0.0999999 0.9 -0.5
v 0.1 0.9 -0.5
v 0.2 0.9 -0.5
v -0.0999999 1 0.6
v 0.1 1 0.6
v -0.2 1 0.5
v -0.0999999 1 0.5
v 0.1 1 0.5
v 0.2 1 0.5
v -0.2 1 -0.4
v -0.0999999 1 -0.4
v 0.1 1 -0.4
v 0.2 1 -0.4
v -0.2 1.1 -1
v -0.0999999 1.1 -1
v 0.1 1.1 -1
v 0.2 1.1 -1
v -0.2 1.1 -1.1
v -0.0999999 1.1 -1.1
v 0.1 1.1 -1.1
v 0.2 1.1 -1.1
v -0.0999999 1.1 -1.2
v 0.1 1.1 -1.2
v -0.0999999 0.6 0
v 0.1 0.6 0
v -0.0999999 0.6 -0.4
v 0.1 0.6 -0.4
v -0.0999999 0.8 -0.1
v 0.1 0.8 -0.1
v -0.0999999 0.8 -0.2
v 0.1 0.8 -0.2
v -0.0999999 1.2 0.6
v 0.1 1.2 0.6
v -0.2 1.2 0.5
v -0.0999999 1.2 0.5
v 0.1 1.2 0.5
v 0.2 1.2 0.5
v -0.2 1.2 -0.7
v -0.0999999 1.2 -0.7
v 0.1 1.2 -0.7
v 0.2 1.2 -0.7
v -0.0999999 1.3 0.5
v 0.1 1.3 0.5
v -0.2 1.3 -0.7
v -0.0999999 1.3 -0.7
v 0.1 1.3 -0.7
v 0.2 1.3 -0.7
v -0.2 1.3 -1
v 0.2 1.3 -1
v -0.0999999 1.3 -1.1
v 0.1 1.3 -1.1
v -0.0999999 1.3 -1.2
v 0.1 1.3 -1.2
v -0.0999999 1.4 -1
v 0.1 1.4 -1
v -0.0999999 1.4 -1.1
v 0.1 1.4 -1.1
v -0.2 1.5 -1
v -0.0999999 1.5 -1
v 0.1 1.5 -1
v 0.2 1.5 -1
v -0.2 1.5 -1.1
v -0.0999999 1.5 -1.1
v 0.1 1.5 -1.1
v 0.2 1.5 -1.1

# faces
f 4/1/1 2/1/1 1/1/1
f 6/1/1 4/1/1 3/1/1
f 8/1/1 6/1/1 5/1/1
f 10/1/1 8/1/1 7/1/1
f 11/1/1 2/1/1 4/1/1
f 11/1/1 10/1/1 9/1/1
f 11/1/1 8/1/1 10/1/1
f 11/1/1 4/1/1 6/1/1
f 11/1/1 6/1/1 8/1/1
f 13/1/1 11/1/1 9/1/1
f 13/1/1 12/1/1 11/1/1
f 14/1/1 12/1/1 13/1/1
f 15/1/1 12/1/1 14/1/1
f 16/1/1 12/1/1 15/1/1
f 17/1/1 12/1/1 16/1/1
f 18/2/1 17/2/1 16/2/1
f 19/2/1 17/2/1 18/2/1
f 26/1/1 21/1/1 20/1/1
f 28/2/1 25/2/1 24/2/1
f 29/2/1 25/2/1 28/2/1
f 30/1/1 26/1/1 25/1/1
f 30/2/1 25/2/1 29/2/1
f 31/1/1 21/1/1 26/1/1
f 31/1/1 26/1/1 30/1/1
f 32/1/1 21/1/1 31/1/1
f 35/2/1 34/2/1 33/2/1
f 36/2/1 34/2/1 35/2/1
f 37/2/1 34/2/1 36/2/1
f 38/1/1 30/1/1 29/1/1
f 38/1/1 31/1/1 30/1/1
f 39/1/1 31/1/1 38/1/1
f 40/1/1 31/1/1 39/1/1
f 42/2/1 28/2/1 27/2/1
f 43/2/1 28/2/1 42/2/1
f 44/2/1 37/2/1 36/2/1
f 45/1/1 39/1/1 38/1/1
f 45/1/1 38/1/1 37/1/1
f 45/2/1 37/2/1 44/2/1
f 46/1/1 39/1/1 45/1/1
f 47/1/1 39/1/1 46/1/1
f 49/1/1 43/1/1 42/1/1
f 49/1/1 44/1/1 43/1/1
f 49/1/1 46/1/1 45/1/1
f 49/1/1 45/1/1 44/1/1
f 49/1/1 42/1/1 41/1/1
f 50/1/1 46/1/1 49/1/1
f 51/1/1 23/1/1 22/1/1
f 52/1/1 23/1/1 51/1/1
f 54/2/1 49/2/1 48/2/1
f 55/2/1 49/2/1 54/2/1
f 57/1/1 56/1/1 55/1/1
f 58/1/1 56/1/1 57/1/1
f 59/1/1 53/1/1 52/1/1
f 60/1/1 53/1/1 59/1/1
f 63/2/1 62/2/1 61/2/1
f 64/2/1 62/2/1 63/2/1
f 65/2/2 66/2/2 67/2/2
f 67/2/2 66/2/2 68/2/2
f 69/1/2 70/1/2 75/1/2
f 73/2/2 74/2/2 77/2/2
f 77/2/2 74/2/2 78/2/2
f 74/1/2 75/1/2 79/1/2
f 78/2/2 74/2/2 79/2/2
f 75/1/2 70/1/2 80/1/2
f 79/1/2 75/1/2 80/1/2
f 80/1/2 70/1/2 81/1/2
f 82/2/2 83/2/2 84/2/2
f 84/2/2 83/2/2 85/2/2
f 85/2/2 83/2/2 86/2/2
f 78/1/2 79/1/2 87/1/2
f 79/1/2 80/1/2 87/1/2
f 87/1/2 80/1/2 88/1/2
f 88/1/2 80/1/2 89/1/2
f 76/2/2 77/2/2 91/2/2
f 91/2/2 77/2/2 92/2/2
f 85/2/2 86/2/2 93/2/2
f 87/1/2 88/1/2 94/1/2
f 86/1/2 87/1/2 94/1/2
f 93/2/2 86/2/2 94/2/2
f 94/1/2 88/1/2 95/1/2
f 95/1/2 88/1/2 96/1/2
f 91/1/2 92/1/2 98/1/2
f 92/1/2 93/1/2 98/1/2
f 94/1/2 95/1/2 98/1/2
f 93/1/2 94/1/2 98/1/2
f 90/1/2 91/1/2 98/1/2
f 98/1/2 95/1/2 99/1/2
f 71/1/2 72/1/2 100/1/2
f 100/1/2 72/1/2 101/1/2
f 97/2/2 98/2/2 103/2/2
f 103/2/2 98/2/2 104/2/2
f 104/1/2 105/1/2 106/1/2
f 106/1/2 105/1/2 107/1/2
f 101/1/2 102/1/2 108/1/2
f 108/1/2 102/1/2 109/1/2
f 110/1/2 111/1/2 113/1/2
f 112/1/2 113/1/2 115/1/2
f 114/1/2 115/1/2 117/1/2
f 116/1/2 117/1/2 119/1/2
f 113/1/2 111/1/2 120/1/2
f 118/1/2 119/1/2 120/1/2
f 119/1/2 117/1/2 120/1/2
f 115/1/2 113/1/2 120/1/2
f 117/1/2 115/1/2 120/1/2
f 118/1/2 120/1/2 122/1/2
f 120/1/2 121/1/2 122/1/2
f 122/1/2 121/1/2 123/1/2
f 123/1/2 121/1/2 124/1/2
f 124/1/2 121/1/2 125/1/2
f 125/1/2 121/1/2 126/1/2
f 125/2/2 126/2/2 127/2/2
f 127/2/2 126/2/2 128/2/2
f 131/2/3 130/2/3 129/2/3
f 132/2/3 130/2/3 131/2/3
f 136/1/3 134/1/3 133/1/3
f 137/1/3 134/1/3 136/1/3
f 139/1/3 136/1/3 135/1/3
f 140/1/3 136/1/3 139/1/3
f 141/1/3 138/1/3 137/1/3
f 142/1/3 138/1/3 141/1/3
f 143/1/3 141/1/3 140/1/3
f 144/1/3 141/1/3 143/1/3
f 147/2/3 146/2/3 145/2/3
f 148/2/3 146/2/3 147/2/3
f 151/2/3 150/2/3 149/2/3
f 152/2/3 150/2/3 151/2/3
f 155/2/3 154/2/3 153/2/3
f 156/2/3 154/2/3 155/2/3
f 159/2/3 158/2/3 157/2/3
f 160/2/3 158/2/3 159/2/3
f 165/1/3 162/1/3 161/1/3
f 166/1/3 162/1/3 165/1/3
f 167/1/3 164/1/3 163/1/3
f 168/1/3 164/1/3 167/1/3
f 171/1/3 170/1/3 169/1/3
f 172/1/3 170/1/3 171/1/3
f 175/1/3 174/1/3 173/1/3
f 176/1/3 174/1/3 175/1/3
f 179/1/3 178/1/3 177/1/3
f 180/1/3 178/1/3 179/1/3
f 185/1/3 182/1/3 181/1/3
f 186/1/3 182/1/3 185/1/3
f 187/1/3 184/1/3 183/1/3
f 188/1/3 184/1/3 187/1/3
f 191/1/3 190/1/3 189/1/3
f 192/1/3 190/1/3 191/1/3
f 197/1/3 194/1/3 193/1/3
f 198/1/3 194/1/3 197/1/3
f 199/1/3 196/1/3 195/1/3
f 200/1/3 196/1/3 199/1/3
f 205/1/3 202/1/3 201/1/3
f 206/1/3 202/1/3 205/1/3
f 207/1/3 204/1/3 203/1/3
f 208/1/3 204/1/3 207/1/3
f 211/2/3 210/2/3 209/2/3
f 212/2/3 210/2/3 211/2/3
f 213/2/3 211/2/3 209/2/3
f 215/2/3 213/2/3 209/2/3
f 215/2/3 214/2/3 213/2/3
f 216/2/3 214/2/3 215/2/3
f 217/2/4 218/2/4 219/2/4
f 219/2/4 218/2/4 220/2/4
f 221/2/4 222/2/4 223/2/4
f 223/2/4 222/2/4 224/2/4
f 225/1/4 226/1/4 227/1/4
f 227/1/4 226/1/4 228/1/4
f 229/1/4 230/1/4 231/1/4
f 231/1/4 230/1/4 232/1/4
f 233/1/4 234/1/4 237/1/4
f 234/2/4 235/2/4 238/2/4
f 237/1/4 234/1/4 238/1/4
f 238/2/4 235/2/4 239/2/4
f 239/2/4 235/2/4 240/2/4
f 236/1/4 237/1/4 241/1/4
f 241/1/4 237/1/4 242/1/4
f 238/2/4 239/2/4 243/2/4
f 243/2/4 239/2/4 244/2/4
f 242/1/4 243/1/4 246/1/4
f 244/2/4 245/2/4 247/2/4
f 246/1/4 243/1/4 247/1/4
f 243/2/4 244/2/4 247/2/4
f 247/2/4 245/2/4 248/2/4
f 249/1/4 250/1/4 251/1/4
f 251/1/4 250/1/4 252/1/4
f 256/1/5 254/1/5 253/1/5
f 257/1/5 254/1/5 256/1/5
f 259/1/5 256/1/5 255/1/5
f 259/1/5 258/1/5 257/1/5
f 259/1/5 257/1/5 256/1/5
f 260/1/5 258/1/5 259/1/5
f 261/1/5 258/1/5 260/1/5
f 262/1/5 258/1/5 261/1/5
f 263/1/5 261/1/5 260/1/5
f 264/1/5 261/1/5 263/1/5
f 267/2/5 266/2/5 265/2/5
f 268/2/5 266/2/5 267/2/5
f 269/1/5 268/1/5 267/1/5
f 270/1/5 268/1/5 269/1/5
f 273/2/5 272/2/5 271/2/5
f 274/2/5 272/2/5 273/2/5
f 279/1/5 276/1/5 275/1/5
f 280/1/5 276/1/5 279/1/5
f 281/1/5 278/1/5 277/1/5
f 282/1/5 278/1/5 281/1/5
f 285/2/5 284/2/5 283/2/5
f 286/2/5 284/2/5 285/2/5
f 289/1/5 288/1/5 287/1/5
f 290/1/5 288/1/5 289/1/5
f 295/1/5 292/1/5 291/1/5
f 296/1/5 292/1/5 295/1/5
f 297/1/5 294/1/5 293/1/5
f 298/1/5 294/1/5 297/1/5
f 301/1/5 300/1/5 299/1/5
f 302/1/5 300/1/5 301/1/5
f 305/1/5 304/1/5 303/1/5
f 306/1/5 304/1/5 305/1/5
f 311/1/5 308/1/5 307/1/5
f 312/1/5 308/1/5 311/1/5
f 313/1/5 310/1/5 309/1/5
f 314/1/5 310/1/5 313/1/5
f 318/2/5 316/2/5 315/2/5
f 319/2/5 316/2/5 318/2/5
f 321/1/5 318/1/5 317/1/5
f 322/1/5 318/1/5 321/1/5
f 323/1/5 320/1/5 319/1/5
f 324/1/5 320/1/5 323/1/5
f 329/1/5 326/1/5 325/1/5
f 330/1/5 326/1/5 329/1/5
f 331/1/5 328/1/5 327/1/5
f 332/1/5 328/1/5 331/1/5
f 333/1/5 331/1/5 330/1/5
f 334/1/5 331/1/5 333/1/5
f 335/2/6 336/2/6 337/2/6
f 337/2/6 336/2/6 338/2/6
f 339/2/6 340/2/6 341/2/6
f 341/2/6 340/2/6 342/2/6
f 343/2/6 344/2/6 346/2/6
f 346/2/6 344/2/6 347/2/6
f 345/1/6 346/1/6 349/1/6
f 349/1/6 346/1/6 350/1/6
f 347/1/6 348/1/6 351/1/6
f 351/1/6 348/1/6 352/1/6
f 353/1/6 354/1/6 356/1/6
f 356/1/6 354/1/6 357/1/6
f 355/1/6 356/1/6 359/1/6
f 357/1/6 358/1/6 359/1/6
f 356/1/6 357/1/6 359/1/6
f 359/1/6 358/1/6 360/1/6
f 361/1/6 362/1/6 363/1/6
f 363/1/6 362/1/6 364/1/6
f 365/2/6 366/2/6 367/2/6
f 367/2/6 366/2/6 368/2/6
f 369/2/6 370/2/6 373/2/6
f 373/2/6 370/2/6 374/2/6
f 371/2/6 372/2/6 375/2/6
f 375/2/6 372/2/6 376/2/6
